<svg xmlns="http://www.w3.org/2000/svg" xmlns:xlink="http://www.w3.org/1999/xlink" width="256" zoomAndPan="magnify" viewBox="0 0 192 191.999996" height="256" preserveAspectRatio="xMidYMid meet" version="1.0"><defs><clipPath id="87cadecf16"><path d="M 22.332031 22.789062 L 173.136719 22.789062 L 173.136719 173.589844 L 22.332031 173.589844 Z M 22.332031 22.789062 " clip-rule="nonzero"/></clipPath></defs><g clip-path="url(#87cadecf16)"><path fill="#000000" d="M 165.074219 52.886719 L 173.136719 22.789062 L 143.042969 30.847656 L 149.804688 37.617188 L 39.566406 147.867188 C 39.566406 147.867188 40.25 148.671875 43.730469 152.210938 C 47.207031 155.746094 48.070312 156.378906 48.070312 156.378906 L 158.304688 46.117188 Z M 87.929688 76.496094 L 94.699219 83.265625 L 102.757812 53.171875 L 72.667969 61.234375 L 79.421875 67.996094 L 35.417969 112.015625 C 34.890625 109.207031 34.558594 106.375 34.433594 103.519531 C 34.304688 100.664062 34.386719 97.816406 34.660156 94.96875 C 34.9375 92.125 35.410156 89.308594 36.082031 86.535156 C 36.753906 83.757812 37.621094 81.035156 38.671875 78.378906 C 39.730469 75.726562 40.96875 73.15625 42.386719 70.671875 C 43.804688 68.195312 45.390625 65.828125 47.144531 63.5625 C 48.898438 61.308594 50.800781 59.183594 52.851562 57.195312 C 54.90625 55.203125 57.089844 53.375 59.398438 51.6875 C 61.710938 50.011719 64.132812 48.5 66.65625 47.15625 C 69.179688 45.820312 71.789062 44.660156 74.476562 43.6875 C 77.164062 42.714844 79.90625 41.9375 82.703125 41.351562 C 85.5 40.765625 88.328125 40.378906 91.175781 40.195312 C 94.03125 40.015625 96.882812 40.027344 99.730469 40.242188 C 102.585938 40.460938 105.402344 40.871094 108.195312 41.484375 C 110.984375 42.105469 113.722656 42.910156 116.398438 43.90625 C 119.082031 44.90625 121.667969 46.089844 124.183594 47.457031 L 132.976562 38.664062 C 131.300781 37.636719 129.582031 36.6875 127.828125 35.808594 C 126.070312 34.921875 124.277344 34.109375 122.453125 33.378906 C 120.632812 32.640625 118.78125 31.972656 116.910156 31.386719 C 115.03125 30.800781 113.136719 30.289062 111.21875 29.855469 C 109.300781 29.425781 107.363281 29.066406 105.421875 28.792969 C 103.472656 28.511719 101.519531 28.3125 99.558594 28.191406 C 97.59375 28.078125 95.628906 28.039062 93.667969 28.078125 C 91.695312 28.121094 89.738281 28.238281 87.78125 28.4375 C 85.824219 28.632812 83.882812 28.910156 81.945312 29.269531 C 80.015625 29.625 78.097656 30.054688 76.199219 30.570312 C 74.304688 31.082031 72.425781 31.675781 70.574219 32.332031 C 68.726562 33 66.902344 33.738281 65.109375 34.542969 C 63.320312 35.355469 61.570312 36.238281 59.847656 37.191406 C 58.128906 38.144531 56.453125 39.167969 54.8125 40.253906 C 53.175781 41.34375 51.585938 42.496094 50.042969 43.714844 C 48.496094 44.933594 47.007812 46.210938 45.570312 47.550781 C 44.128906 48.886719 42.746094 50.285156 41.414062 51.734375 C 40.089844 53.1875 38.824219 54.691406 37.621094 56.242188 C 36.417969 57.792969 35.269531 59.398438 34.199219 61.042969 C 33.121094 62.683594 32.117188 64.375 31.175781 66.101562 C 30.238281 67.832031 29.367188 69.585938 28.574219 71.386719 C 27.777344 73.183594 27.058594 75.011719 26.40625 76.871094 C 25.757812 78.726562 25.1875 80.605469 24.6875 82.507812 C 24.195312 84.410156 23.777344 86.328125 23.4375 88.265625 C 23.097656 90.203125 22.832031 92.144531 22.652344 94.101562 C 22.464844 96.058594 22.363281 98.023438 22.339844 99.992188 C 22.316406 101.957031 22.371094 103.921875 22.503906 105.882812 C 22.636719 107.839844 22.855469 109.796875 23.148438 111.742188 C 23.441406 113.683594 23.816406 115.617188 24.261719 117.527344 C 24.714844 119.441406 25.242188 121.332031 25.839844 123.203125 C 26.445312 125.074219 27.125 126.917969 27.875 128.734375 C 28.628906 130.550781 29.445312 132.335938 30.34375 134.085938 L 39.386719 125.042969 Z M 148.460938 71.769531 C 160.996094 94.808594 157.527344 124.316406 138.0625 143.785156 C 136.320312 145.523438 134.484375 147.144531 132.546875 148.664062 C 130.609375 150.183594 128.585938 151.574219 126.480469 152.84375 C 124.371094 154.109375 122.195312 155.246094 119.953125 156.253906 C 117.707031 157.257812 115.40625 158.121094 113.054688 158.855469 C 110.707031 159.582031 108.324219 160.160156 105.902344 160.597656 C 103.476562 161.03125 101.042969 161.316406 98.585938 161.457031 C 96.128906 161.605469 93.671875 161.589844 91.222656 161.429688 C 88.765625 161.277344 86.332031 160.972656 83.914062 160.511719 L 99.816406 144.609375 L 106.585938 151.378906 L 114.648438 121.28125 L 84.546875 129.339844 L 91.316406 136.109375 L 70.890625 156.546875 L 61.851562 165.585938 C 63.59375 166.484375 65.378906 167.300781 67.195312 168.054688 C 69.011719 168.8125 70.855469 169.484375 72.726562 170.089844 C 74.597656 170.691406 76.492188 171.222656 78.402344 171.667969 C 80.320312 172.121094 82.25 172.488281 84.195312 172.785156 C 86.136719 173.078125 88.089844 173.292969 90.050781 173.425781 C 92.007812 173.558594 93.972656 173.617188 95.941406 173.589844 C 97.90625 173.570312 99.871094 173.464844 101.828125 173.285156 C 103.785156 173.097656 105.734375 172.839844 107.664062 172.5 C 109.601562 172.160156 111.523438 171.742188 113.429688 171.242188 C 115.324219 170.75 117.210938 170.175781 119.066406 169.523438 C 120.917969 168.878906 122.746094 168.160156 124.542969 167.363281 C 126.34375 166.5625 128.105469 165.699219 129.828125 164.757812 C 131.5625 163.820312 133.246094 162.816406 134.890625 161.738281 C 136.539062 160.660156 138.136719 159.519531 139.6875 158.316406 C 141.246094 157.109375 142.742188 155.847656 144.195312 154.515625 C 145.644531 153.191406 147.042969 151.804688 148.382812 150.367188 C 149.71875 148.929688 150.996094 147.433594 152.214844 145.894531 C 153.433594 144.351562 154.589844 142.761719 155.675781 141.121094 C 156.769531 139.484375 157.785156 137.808594 158.738281 136.089844 C 159.695312 134.367188 160.574219 132.617188 161.386719 130.820312 C 162.199219 129.027344 162.9375 127.210938 163.597656 125.359375 C 164.261719 123.511719 164.847656 121.632812 165.359375 119.734375 C 165.875 117.839844 166.304688 115.921875 166.664062 113.984375 C 167.019531 112.054688 167.296875 110.109375 167.496094 108.152344 C 167.699219 106.195312 167.816406 104.242188 167.855469 102.269531 C 167.898438 100.304688 167.855469 98.34375 167.738281 96.378906 C 167.617188 94.414062 167.417969 92.464844 167.144531 90.515625 C 166.867188 88.570312 166.511719 86.632812 166.074219 84.71875 C 165.640625 82.800781 165.132812 80.902344 164.542969 79.027344 C 163.957031 77.15625 163.296875 75.304688 162.558594 73.480469 C 161.820312 71.65625 161.007812 69.867188 160.128906 68.109375 C 159.242188 66.351562 158.292969 64.636719 157.273438 62.957031 Z M 148.460938 71.769531 " fill-opacity="1" fill-rule="nonzero"/></g></svg>