<svg xmlns="http://www.w3.org/2000/svg" xmlns:xlink="http://www.w3.org/1999/xlink" width="240" zoomAndPan="magnify" viewBox="0 0 180 60" height="80" preserveAspectRatio="xMidYMid meet" version="1.0"><defs><g/><clipPath id="499aef9141"><path d="M 24.128906 13.222656 L 57.878906 13.222656 L 57.878906 46.972656 L 24.128906 46.972656 Z M 24.128906 13.222656 " clip-rule="nonzero"/></clipPath></defs><g clip-path="url(#499aef9141)"><path fill="#ffffff" d="M 55.886719 19.921875 L 57.679688 13.222656 L 50.984375 15.019531 L 52.488281 16.523438 L 27.960938 41.050781 C 27.960938 41.050781 28.113281 41.230469 28.886719 42.015625 C 29.660156 42.804688 29.855469 42.945312 29.855469 42.945312 L 54.378906 18.414062 Z M 38.722656 25.171875 L 40.226562 26.679688 L 42.023438 19.984375 L 35.324219 21.777344 L 36.828125 23.28125 L 27.039062 33.074219 C 26.804688 31.820312 26.746094 30.554688 26.871094 29.28125 C 26.992188 28.011719 27.292969 26.78125 27.765625 25.59375 C 28.234375 24.40625 28.863281 23.304688 29.648438 22.296875 C 30.433594 21.285156 31.339844 20.40625 32.375 19.652344 C 33.410156 18.902344 34.527344 18.308594 35.726562 17.875 C 36.929688 17.4375 38.167969 17.179688 39.445312 17.097656 C 40.71875 17.015625 41.980469 17.109375 43.230469 17.382812 C 44.480469 17.660156 45.664062 18.101562 46.789062 18.710938 L 48.746094 16.753906 C 47.996094 16.300781 47.214844 15.90625 46.402344 15.578125 C 45.589844 15.25 44.757812 14.988281 43.902344 14.796875 C 43.046875 14.601562 42.183594 14.480469 41.308594 14.425781 C 40.433594 14.375 39.5625 14.390625 38.6875 14.480469 C 37.816406 14.570312 36.957031 14.726562 36.113281 14.957031 C 35.265625 15.183594 34.445312 15.476562 33.644531 15.839844 C 32.847656 16.203125 32.082031 16.625 31.355469 17.109375 C 30.625 17.59375 29.9375 18.136719 29.296875 18.734375 C 28.65625 19.328125 28.066406 19.972656 27.527344 20.667969 C 26.992188 21.359375 26.515625 22.089844 26.09375 22.859375 C 25.675781 23.628906 25.324219 24.429688 25.035156 25.253906 C 24.746094 26.082031 24.523438 26.929688 24.375 27.792969 C 24.222656 28.652344 24.140625 29.523438 24.128906 30.398438 C 24.117188 31.277344 24.179688 32.148438 24.308594 33.015625 C 24.441406 33.878906 24.640625 34.730469 24.910156 35.566406 C 25.175781 36.398438 25.511719 37.207031 25.910156 37.984375 Z M 52.1875 24.121094 C 54.976562 29.246094 54.207031 35.8125 49.875 40.140625 C 49.097656 40.917969 48.238281 41.589844 47.296875 42.15625 C 46.359375 42.726562 45.363281 43.171875 44.3125 43.496094 C 43.261719 43.820312 42.191406 44.011719 41.09375 44.074219 C 39.996094 44.136719 38.90625 44.066406 37.828125 43.867188 L 41.367188 40.328125 L 42.871094 41.832031 L 44.667969 35.136719 L 37.96875 36.929688 L 39.476562 38.4375 L 34.929688 42.980469 L 32.917969 44.992188 C 33.699219 45.394531 34.503906 45.726562 35.339844 45.996094 C 36.175781 46.265625 37.023438 46.464844 37.890625 46.59375 C 38.757812 46.726562 39.628906 46.785156 40.503906 46.773438 C 41.378906 46.765625 42.25 46.683594 43.113281 46.53125 C 43.976562 46.378906 44.820312 46.160156 45.648438 45.871094 C 46.476562 45.582031 47.273438 45.226562 48.042969 44.808594 C 48.8125 44.390625 49.546875 43.914062 50.238281 43.375 C 50.929688 42.839844 51.574219 42.25 52.171875 41.609375 C 52.769531 40.964844 53.308594 40.28125 53.792969 39.550781 C 54.28125 38.820312 54.703125 38.058594 55.066406 37.257812 C 55.425781 36.460938 55.722656 35.640625 55.949219 34.792969 C 56.175781 33.945312 56.335938 33.085938 56.425781 32.214844 C 56.511719 31.34375 56.53125 30.472656 56.476562 29.597656 C 56.425781 28.722656 56.300781 27.855469 56.109375 27.003906 C 55.914062 26.148438 55.652344 25.3125 55.324219 24.503906 C 54.996094 23.691406 54.605469 22.910156 54.148438 22.160156 Z M 52.1875 24.121094 " fill-opacity="1" fill-rule="nonzero"/></g><g fill="#ffffff" fill-opacity="1"><g transform="translate(68.82171, 26.698547)"><g><path d="M 5.421875 -6.671875 L 2.203125 -6.671875 L 2.203125 -4.515625 L 4.984375 -4.515625 L 4.984375 -3.328125 L 2.203125 -3.328125 L 2.203125 -1.15625 L 5.421875 -1.15625 L 5.421875 0 L 0.921875 0 L 0.921875 -7.84375 L 5.421875 -7.84375 Z M 5.421875 -6.671875 "/></g></g></g><g fill="#ffffff" fill-opacity="1"><g transform="translate(75.320677, 26.698547)"><g><path d="M 5.578125 -7.84375 L 7 -7.84375 L 4.171875 0 L 2.75 0 L -0.09375 -7.84375 L 1.328125 -7.84375 L 3.46875 -1.625 Z M 5.578125 -7.84375 "/></g></g></g><g fill="#ffffff" fill-opacity="1"><g transform="translate(82.643117, 26.698547)"><g><path d="M 5.421875 -6.671875 L 2.203125 -6.671875 L 2.203125 -4.515625 L 4.984375 -4.515625 L 4.984375 -3.328125 L 2.203125 -3.328125 L 2.203125 -1.15625 L 5.421875 -1.15625 L 5.421875 0 L 0.921875 0 L 0.921875 -7.84375 L 5.421875 -7.84375 Z M 5.421875 -6.671875 "/></g></g></g><g fill="#ffffff" fill-opacity="1"><g transform="translate(89.142085, 26.698547)"><g><path d="M 3.046875 0.109375 C 2.421875 0.109375 1.859375 -0.046875 1.359375 -0.359375 C 0.867188 -0.679688 0.507812 -1.082031 0.28125 -1.5625 L 1.390625 -2.234375 C 1.523438 -1.898438 1.734375 -1.628906 2.015625 -1.421875 C 2.304688 -1.222656 2.65625 -1.125 3.0625 -1.125 C 3.425781 -1.125 3.726562 -1.210938 3.96875 -1.390625 C 4.207031 -1.566406 4.328125 -1.816406 4.328125 -2.140625 C 4.328125 -2.421875 4.238281 -2.644531 4.0625 -2.8125 C 3.882812 -2.988281 3.648438 -3.132812 3.359375 -3.25 C 3.078125 -3.363281 2.78125 -3.476562 2.46875 -3.59375 C 2.15625 -3.71875 1.859375 -3.863281 1.578125 -4.03125 C 1.296875 -4.195312 1.0625 -4.414062 0.875 -4.6875 C 0.695312 -4.96875 0.609375 -5.328125 0.609375 -5.765625 C 0.609375 -6.234375 0.71875 -6.628906 0.9375 -6.953125 C 1.15625 -7.285156 1.441406 -7.53125 1.796875 -7.6875 C 2.160156 -7.851562 2.546875 -7.9375 2.953125 -7.9375 C 3.410156 -7.9375 3.835938 -7.835938 4.234375 -7.640625 C 4.628906 -7.453125 4.953125 -7.207031 5.203125 -6.90625 L 4.296875 -6.078125 C 3.941406 -6.523438 3.492188 -6.75 2.953125 -6.75 C 2.660156 -6.75 2.410156 -6.675781 2.203125 -6.53125 C 1.992188 -6.382812 1.890625 -6.160156 1.890625 -5.859375 C 1.890625 -5.585938 1.976562 -5.367188 2.15625 -5.203125 C 2.34375 -5.046875 2.578125 -4.910156 2.859375 -4.796875 C 3.140625 -4.679688 3.4375 -4.5625 3.75 -4.4375 C 4.0625 -4.320312 4.359375 -4.171875 4.640625 -3.984375 C 4.921875 -3.796875 5.148438 -3.554688 5.328125 -3.265625 C 5.515625 -2.972656 5.609375 -2.597656 5.609375 -2.140625 C 5.609375 -1.671875 5.488281 -1.269531 5.25 -0.9375 C 5.019531 -0.601562 4.710938 -0.34375 4.328125 -0.15625 C 3.941406 0.0195312 3.515625 0.109375 3.046875 0.109375 Z M 3.046875 0.109375 "/></g></g></g><g fill="#ffffff" fill-opacity="1"><g transform="translate(95.484201, 26.698547)"><g><path d="M 5.453125 -7.84375 L 5.453125 -6.65625 L 3.375 -6.65625 L 3.375 0 L 2.109375 0 L 2.109375 -6.65625 L 0.03125 -6.65625 L 0.03125 -7.84375 Z M 5.453125 -7.84375 "/></g></g></g><g fill="#ffffff" fill-opacity="1"><g transform="translate(101.368834, 26.698547)"><g><path d="M 0.921875 0 L 0.921875 -7.84375 L 2.203125 -7.84375 L 2.203125 0 Z M 0.921875 0 "/></g></g></g><g fill="#ffffff" fill-opacity="1"><g transform="translate(104.900692, 26.698547)"><g><path d="M 5.421875 -6.671875 L 2.203125 -6.671875 L 2.203125 -4.515625 L 4.984375 -4.515625 L 4.984375 -3.328125 L 2.203125 -3.328125 L 2.203125 0 L 0.921875 0 L 0.921875 -7.84375 L 5.421875 -7.84375 Z M 5.421875 -6.671875 "/></g></g></g><g fill="#ffffff" fill-opacity="1"><g transform="translate(110.902963, 26.698547)"><g><path d="M 6.671875 -7.84375 L 3.953125 -3.703125 L 3.953125 0 L 2.671875 0 L 2.671875 -3.6875 L -0.078125 -7.84375 L 1.421875 -7.84375 L 3.3125 -4.890625 L 5.203125 -7.84375 Z M 6.671875 -7.84375 "/></g></g></g><g fill="#fdfdfd" fill-opacity="1"><g transform="translate(73.00331, 33.11202)"><g><path d="M 0.28125 0 L 0.28125 -2.3125 L 0.546875 -2.3125 L 0.546875 0 Z M 0.28125 0 "/></g></g></g><g fill="#fdfdfd" fill-opacity="1"><g transform="translate(73.968606, 33.11202)"><g><path d="M 1.890625 -2.3125 L 2.140625 -2.3125 L 2.140625 0 L 1.9375 0 L 0.53125 -1.859375 L 0.53125 0 L 0.28125 0 L 0.28125 -2.3125 L 0.484375 -2.3125 L 1.890625 -0.453125 Z M 1.890625 -2.3125 "/></g></g></g><g fill="#fdfdfd" fill-opacity="1"><g transform="translate(76.519978, 33.11202)"><g><path d="M 1.984375 -2.3125 L 2.265625 -2.3125 L 1.25 0 L 1.015625 0 L 0 -2.3125 L 0.296875 -2.3125 L 1.140625 -0.34375 Z M 1.984375 -2.3125 "/></g></g></g><g fill="#fdfdfd" fill-opacity="1"><g transform="translate(78.912094, 33.11202)"><g><path d="M 0.28125 0 L 0.28125 -2.3125 L 1.75 -2.3125 L 1.75 -2.09375 L 0.546875 -2.09375 L 0.546875 -1.28125 L 1.6875 -1.28125 L 1.6875 -1.0625 L 0.546875 -1.0625 L 0.546875 -0.21875 L 1.75 -0.21875 L 1.75 0 Z M 0.28125 0 "/></g></g></g><g fill="#fdfdfd" fill-opacity="1"><g transform="translate(80.949943, 33.11202)"><g><path d="M 1.015625 0.03125 C 0.660156 0.03125 0.375 -0.0664062 0.15625 -0.265625 L 0.25 -0.46875 C 0.363281 -0.375 0.476562 -0.304688 0.59375 -0.265625 C 0.71875 -0.222656 0.863281 -0.203125 1.03125 -0.203125 C 1.207031 -0.203125 1.347656 -0.238281 1.453125 -0.3125 C 1.554688 -0.382812 1.609375 -0.488281 1.609375 -0.625 C 1.609375 -0.695312 1.582031 -0.753906 1.53125 -0.796875 C 1.476562 -0.847656 1.410156 -0.890625 1.328125 -0.921875 C 1.253906 -0.953125 1.15625 -0.984375 1.03125 -1.015625 C 0.84375 -1.046875 0.691406 -1.082031 0.578125 -1.125 C 0.460938 -1.175781 0.367188 -1.242188 0.296875 -1.328125 C 0.234375 -1.421875 0.203125 -1.535156 0.203125 -1.671875 C 0.203125 -1.804688 0.234375 -1.921875 0.296875 -2.015625 C 0.367188 -2.117188 0.46875 -2.195312 0.59375 -2.25 C 0.71875 -2.3125 0.867188 -2.34375 1.046875 -2.34375 C 1.203125 -2.34375 1.347656 -2.316406 1.484375 -2.265625 C 1.628906 -2.210938 1.75 -2.140625 1.84375 -2.046875 L 1.734375 -1.84375 C 1.628906 -1.9375 1.519531 -2.003906 1.40625 -2.046875 C 1.289062 -2.085938 1.171875 -2.109375 1.046875 -2.109375 C 0.859375 -2.109375 0.710938 -2.066406 0.609375 -1.984375 C 0.515625 -1.910156 0.46875 -1.8125 0.46875 -1.6875 C 0.46875 -1.5625 0.507812 -1.46875 0.59375 -1.40625 C 0.6875 -1.351562 0.820312 -1.304688 1 -1.265625 C 1.207031 -1.210938 1.363281 -1.164062 1.46875 -1.125 C 1.582031 -1.09375 1.675781 -1.035156 1.75 -0.953125 C 1.832031 -0.867188 1.875 -0.757812 1.875 -0.625 C 1.875 -0.5 1.835938 -0.382812 1.765625 -0.28125 C 1.703125 -0.1875 1.601562 -0.109375 1.46875 -0.046875 C 1.34375 0.00390625 1.191406 0.03125 1.015625 0.03125 Z M 1.015625 0.03125 "/></g></g></g><g fill="#fdfdfd" fill-opacity="1"><g transform="translate(83.101547, 33.11202)"><g><path d="M 0.84375 0 L 0.84375 -2.09375 L 0.03125 -2.09375 L 0.03125 -2.3125 L 1.921875 -2.3125 L 1.921875 -2.09375 L 1.109375 -2.09375 L 1.109375 0 Z M 0.84375 0 "/></g></g></g><g fill="#fdfdfd" fill-opacity="1"><g transform="translate(85.188149, 33.11202)"><g><path d="M 0.203125 -0.328125 L 0.546875 -0.328125 L 0.546875 0 L 0.203125 0 Z M 0.203125 -0.328125 "/></g></g></g><g fill="#fdfdfd" fill-opacity="1"><g transform="translate(86.065692, 33.11202)"><g/></g></g><g fill="#fdfdfd" fill-opacity="1"><g transform="translate(87.04074, 33.11202)"><g><path d="M 2.109375 -1.203125 L 2.109375 -0.140625 C 2.023438 -0.0859375 1.90625 -0.046875 1.75 -0.015625 C 1.601562 0.015625 1.457031 0.03125 1.3125 0.03125 C 1.082031 0.03125 0.882812 -0.015625 0.71875 -0.109375 C 0.550781 -0.203125 0.421875 -0.335938 0.328125 -0.515625 C 0.242188 -0.703125 0.203125 -0.914062 0.203125 -1.15625 C 0.203125 -1.40625 0.242188 -1.617188 0.328125 -1.796875 C 0.421875 -1.972656 0.546875 -2.109375 0.703125 -2.203125 C 0.867188 -2.296875 1.066406 -2.34375 1.296875 -2.34375 C 1.453125 -2.34375 1.597656 -2.316406 1.734375 -2.265625 C 1.867188 -2.210938 1.988281 -2.140625 2.09375 -2.046875 L 1.984375 -1.84375 C 1.867188 -1.9375 1.753906 -2.003906 1.640625 -2.046875 C 1.535156 -2.085938 1.421875 -2.109375 1.296875 -2.109375 C 1.023438 -2.109375 0.820312 -2.023438 0.6875 -1.859375 C 0.550781 -1.703125 0.484375 -1.46875 0.484375 -1.15625 C 0.484375 -0.84375 0.550781 -0.601562 0.6875 -0.4375 C 0.832031 -0.28125 1.039062 -0.203125 1.3125 -0.203125 C 1.507812 -0.203125 1.695312 -0.234375 1.875 -0.296875 L 1.875 -1 L 1.296875 -1 L 1.296875 -1.203125 Z M 2.109375 -1.203125 "/></g></g></g><g fill="#fdfdfd" fill-opacity="1"><g transform="translate(89.543363, 33.11202)"><g><path d="M 2.109375 0 L 1.8125 0 L 1.53125 -0.765625 C 1.5 -0.859375 1.453125 -0.921875 1.390625 -0.953125 C 1.328125 -0.992188 1.238281 -1.015625 1.125 -1.015625 L 0.546875 -1.015625 L 0.546875 0 L 0.28125 0 L 0.28125 -2.3125 L 1.203125 -2.3125 C 1.453125 -2.3125 1.644531 -2.253906 1.78125 -2.140625 C 1.914062 -2.035156 1.984375 -1.878906 1.984375 -1.671875 C 1.984375 -1.515625 1.941406 -1.382812 1.859375 -1.28125 C 1.773438 -1.1875 1.660156 -1.113281 1.515625 -1.0625 C 1.585938 -1.050781 1.644531 -1.019531 1.6875 -0.96875 C 1.738281 -0.925781 1.78125 -0.863281 1.8125 -0.78125 Z M 1.1875 -1.234375 C 1.539062 -1.234375 1.71875 -1.378906 1.71875 -1.671875 C 1.71875 -1.804688 1.671875 -1.910156 1.578125 -1.984375 C 1.492188 -2.054688 1.363281 -2.09375 1.1875 -2.09375 L 0.546875 -2.09375 L 0.546875 -1.234375 Z M 1.1875 -1.234375 "/></g></g></g><g fill="#fdfdfd" fill-opacity="1"><g transform="translate(91.922479, 33.11202)"><g><path d="M 1.25 0.03125 C 1.039062 0.03125 0.851562 -0.015625 0.6875 -0.109375 C 0.53125 -0.210938 0.410156 -0.351562 0.328125 -0.53125 C 0.242188 -0.707031 0.203125 -0.914062 0.203125 -1.15625 C 0.203125 -1.394531 0.242188 -1.601562 0.328125 -1.78125 C 0.410156 -1.957031 0.53125 -2.09375 0.6875 -2.1875 C 0.84375 -2.289062 1.03125 -2.34375 1.25 -2.34375 C 1.46875 -2.34375 1.65625 -2.289062 1.8125 -2.1875 C 1.96875 -2.09375 2.085938 -1.957031 2.171875 -1.78125 C 2.265625 -1.601562 2.3125 -1.394531 2.3125 -1.15625 C 2.3125 -0.914062 2.265625 -0.707031 2.171875 -0.53125 C 2.085938 -0.351562 1.96875 -0.210938 1.8125 -0.109375 C 1.65625 -0.015625 1.46875 0.03125 1.25 0.03125 Z M 1.25 -0.203125 C 1.5 -0.203125 1.691406 -0.285156 1.828125 -0.453125 C 1.960938 -0.617188 2.03125 -0.851562 2.03125 -1.15625 C 2.03125 -1.46875 1.960938 -1.703125 1.828125 -1.859375 C 1.691406 -2.023438 1.5 -2.109375 1.25 -2.109375 C 1.007812 -2.109375 0.816406 -2.023438 0.671875 -1.859375 C 0.535156 -1.691406 0.46875 -1.457031 0.46875 -1.15625 C 0.46875 -0.851562 0.535156 -0.617188 0.671875 -0.453125 C 0.816406 -0.285156 1.007812 -0.203125 1.25 -0.203125 Z M 1.25 -0.203125 "/></g></g></g><g fill="#fdfdfd" fill-opacity="1"><g transform="translate(94.558356, 33.11202)"><g><path d="M 3.234375 -2.3125 L 3.5 -2.3125 L 2.6875 0 L 2.46875 0 L 1.8125 -1.890625 L 1.140625 0 L 0.921875 0 L 0.109375 -2.3125 L 0.375 -2.3125 L 1.03125 -0.375 L 1.703125 -2.3125 L 1.921875 -2.3125 L 2.578125 -0.375 Z M 3.234375 -2.3125 "/></g></g></g><g fill="#fdfdfd" fill-opacity="1"><g transform="translate(98.299288, 33.11202)"><g><path d="M 0.203125 -0.328125 L 0.546875 -0.328125 L 0.546875 0 L 0.203125 0 Z M 0.203125 -0.328125 "/></g></g></g><g fill="#fdfdfd" fill-opacity="1"><g transform="translate(99.176832, 33.11202)"><g/></g></g><g fill="#fdfdfd" fill-opacity="1"><g transform="translate(100.151878, 33.11202)"><g><path d="M 2.109375 0 L 1.8125 0 L 1.53125 -0.765625 C 1.5 -0.859375 1.453125 -0.921875 1.390625 -0.953125 C 1.328125 -0.992188 1.238281 -1.015625 1.125 -1.015625 L 0.546875 -1.015625 L 0.546875 0 L 0.28125 0 L 0.28125 -2.3125 L 1.203125 -2.3125 C 1.453125 -2.3125 1.644531 -2.253906 1.78125 -2.140625 C 1.914062 -2.035156 1.984375 -1.878906 1.984375 -1.671875 C 1.984375 -1.515625 1.941406 -1.382812 1.859375 -1.28125 C 1.773438 -1.1875 1.660156 -1.113281 1.515625 -1.0625 C 1.585938 -1.050781 1.644531 -1.019531 1.6875 -0.96875 C 1.738281 -0.925781 1.78125 -0.863281 1.8125 -0.78125 Z M 1.1875 -1.234375 C 1.539062 -1.234375 1.71875 -1.378906 1.71875 -1.671875 C 1.71875 -1.804688 1.671875 -1.910156 1.578125 -1.984375 C 1.492188 -2.054688 1.363281 -2.09375 1.1875 -2.09375 L 0.546875 -2.09375 L 0.546875 -1.234375 Z M 1.1875 -1.234375 "/></g></g></g><g fill="#fdfdfd" fill-opacity="1"><g transform="translate(102.530993, 33.11202)"><g><path d="M 0.28125 0 L 0.28125 -2.3125 L 1.75 -2.3125 L 1.75 -2.09375 L 0.546875 -2.09375 L 0.546875 -1.28125 L 1.6875 -1.28125 L 1.6875 -1.0625 L 0.546875 -1.0625 L 0.546875 -0.21875 L 1.75 -0.21875 L 1.75 0 Z M 0.28125 0 "/></g></g></g><g fill="#fdfdfd" fill-opacity="1"><g transform="translate(104.56884, 33.11202)"><g><path d="M 0.28125 -2.3125 L 1.203125 -2.3125 C 1.441406 -2.3125 1.628906 -2.253906 1.765625 -2.140625 C 1.898438 -2.023438 1.96875 -1.867188 1.96875 -1.671875 C 1.96875 -1.460938 1.898438 -1.300781 1.765625 -1.1875 C 1.628906 -1.070312 1.441406 -1.015625 1.203125 -1.015625 L 0.546875 -1.015625 L 0.546875 0 L 0.28125 0 Z M 1.1875 -1.234375 C 1.351562 -1.234375 1.476562 -1.269531 1.5625 -1.34375 C 1.65625 -1.414062 1.703125 -1.523438 1.703125 -1.671875 C 1.703125 -1.804688 1.65625 -1.910156 1.5625 -1.984375 C 1.476562 -2.054688 1.351562 -2.09375 1.1875 -2.09375 L 0.546875 -2.09375 L 0.546875 -1.234375 Z M 1.1875 -1.234375 "/></g></g></g><g fill="#fdfdfd" fill-opacity="1"><g transform="translate(106.811446, 33.11202)"><g><path d="M 0.28125 0 L 0.28125 -2.3125 L 1.75 -2.3125 L 1.75 -2.09375 L 0.546875 -2.09375 L 0.546875 -1.28125 L 1.6875 -1.28125 L 1.6875 -1.0625 L 0.546875 -1.0625 L 0.546875 -0.21875 L 1.75 -0.21875 L 1.75 0 Z M 0.28125 0 "/></g></g></g><g fill="#fdfdfd" fill-opacity="1"><g transform="translate(108.849294, 33.11202)"><g><path d="M 2.046875 0 L 1.796875 -0.59375 L 0.59375 -0.59375 L 0.328125 0 L 0.0625 0 L 1.078125 -2.3125 L 1.3125 -2.3125 L 2.328125 0 Z M 0.6875 -0.8125 L 1.703125 -0.8125 L 1.203125 -2 Z M 0.6875 -0.8125 "/></g></g></g><g fill="#fdfdfd" fill-opacity="1"><g transform="translate(111.361663, 33.11202)"><g><path d="M 0.84375 0 L 0.84375 -2.09375 L 0.03125 -2.09375 L 0.03125 -2.3125 L 1.921875 -2.3125 L 1.921875 -2.09375 L 1.109375 -2.09375 L 1.109375 0 Z M 0.84375 0 "/></g></g></g></svg>