<svg xmlns="http://www.w3.org/2000/svg" xmlns:xlink="http://www.w3.org/1999/xlink" width="734" zoomAndPan="magnify" viewBox="0 0 550.5 191.999996" height="256" preserveAspectRatio="xMidYMid meet" version="1.0"><defs><g/><clipPath id="id1"><path d="M 19.199219 7.808594 L 160 7.808594 L 160 184.058594 L 19.199219 184.058594 Z M 19.199219 7.808594 " clip-rule="nonzero"/></clipPath><clipPath id="id2"><path d="M 134 41 L 214.199219 41 L 214.199219 155 L 134 155 Z M 134 41 " clip-rule="nonzero"/></clipPath></defs><g clip-path="url(#id1)"><path fill="#140e0c" d="M 159.390625 58.585938 L 154.378906 7.839844 L 112.933594 37.546875 L 123.222656 42.207031 L 98.351562 97.132812 L 69.4375 60.953125 L 19.203125 184.050781 L 49.886719 184.050781 L 77.457031 116.488281 L 105.109375 151.085938 L 149.101562 53.929688 L 159.390625 58.585938 " fill-opacity="1" fill-rule="nonzero"/></g><path fill="#03466e" d="M 161.132812 113.398438 L 145.699219 75.582031 L 121.25 129.574219 L 131.710938 116.488281 L 134.613281 123.601562 C 147.097656 148.859375 161.132812 113.398438 161.132812 113.398438 " fill-opacity="1" fill-rule="nonzero"/><g clip-path="url(#id2)"><path fill="#00adef" d="M 209.183594 41.710938 L 167.742188 71.417969 L 178.03125 76.078125 L 161.132812 113.398438 C 161.132812 113.398438 147.097656 148.859375 134.613281 123.601562 L 142.304688 142.449219 C 148.765625 158.277344 170.988281 158.796875 178.183594 143.285156 L 203.910156 87.800781 L 214.199219 92.457031 L 209.183594 41.710938 " fill-opacity="1" fill-rule="nonzero"/></g><g fill="#000000" fill-opacity="1"><g transform="translate(219.417219, 110.984614)"><g><path d="M 30.328125 0 L 30.28125 -17.6875 L 21.609375 -3.125 L 18.53125 -3.125 L 9.90625 -17.3125 L 9.90625 0 L 3.5 0 L 3.5 -29.484375 L 9.140625 -29.484375 L 20.171875 -11.15625 L 31.046875 -29.484375 L 36.65625 -29.484375 L 36.734375 0 Z M 30.328125 0 "/></g></g></g><g fill="#000000" fill-opacity="1"><g transform="translate(260.489133, 110.984614)"><g><path d="M 26.328125 -5.46875 L 26.328125 0 L 3.5 0 L 3.5 -29.484375 L 25.78125 -29.484375 L 25.78125 -24.015625 L 10.28125 -24.015625 L 10.28125 -17.609375 L 23.96875 -17.609375 L 23.96875 -12.296875 L 10.28125 -12.296875 L 10.28125 -5.46875 Z M 26.328125 -5.46875 "/></g></g></g><g fill="#000000" fill-opacity="1"><g transform="translate(289.597585, 110.984614)"><g><path d="M 9.609375 -23.921875 L 0.171875 -23.921875 L 0.171875 -29.484375 L 25.859375 -29.484375 L 25.859375 -23.921875 L 16.421875 -23.921875 L 16.421875 0 L 9.609375 0 Z M 9.609375 -23.921875 "/></g></g></g><g fill="#000000" fill-opacity="1"><g transform="translate(316.47343, 110.984614)"><g><path d="M 22.921875 -6.3125 L 9.21875 -6.3125 L 6.609375 0 L -0.375 0 L 12.765625 -29.484375 L 19.5 -29.484375 L 32.6875 0 L 25.53125 0 Z M 20.765625 -11.5 L 16.09375 -22.796875 L 11.421875 -11.5 Z M 20.765625 -11.5 "/></g></g></g><g fill="#000000" fill-opacity="1"><g transform="translate(349.58375, 110.984614)"><g/></g></g><g fill="#000000" fill-opacity="1"><g transform="translate(362.347772, 110.984614)"><g><path d="M 30.328125 0 L 30.28125 -17.6875 L 21.609375 -3.125 L 18.53125 -3.125 L 9.90625 -17.3125 L 9.90625 0 L 3.5 0 L 3.5 -29.484375 L 9.140625 -29.484375 L 20.171875 -11.15625 L 31.046875 -29.484375 L 36.65625 -29.484375 L 36.734375 0 Z M 30.328125 0 "/></g></g></g><g fill="#000000" fill-opacity="1"><g transform="translate(403.419686, 110.984614)"><g><path d="M 3.5 -29.484375 L 10.328125 -29.484375 L 10.328125 0 L 3.5 0 Z M 3.5 -29.484375 "/></g></g></g><g fill="#000000" fill-opacity="1"><g transform="translate(418.079319, 110.984614)"><g><path d="M 30.546875 -29.484375 L 30.546875 0 L 24.9375 0 L 10.234375 -17.90625 L 10.234375 0 L 3.5 0 L 3.5 -29.484375 L 9.140625 -29.484375 L 23.796875 -11.578125 L 23.796875 -29.484375 Z M 30.546875 -29.484375 "/></g></g></g><g fill="#000000" fill-opacity="1"><g transform="translate(452.958875, 110.984614)"><g><path d="M 3.5 -29.484375 L 10.328125 -29.484375 L 10.328125 0 L 3.5 0 Z M 3.5 -29.484375 "/></g></g></g><g fill="#000000" fill-opacity="1"><g transform="translate(467.618507, 110.984614)"><g><path d="M 30.546875 -29.484375 L 30.546875 0 L 24.9375 0 L 10.234375 -17.90625 L 10.234375 0 L 3.5 0 L 3.5 -29.484375 L 9.140625 -29.484375 L 23.796875 -11.578125 L 23.796875 -29.484375 Z M 30.546875 -29.484375 "/></g></g></g><g fill="#000000" fill-opacity="1"><g transform="translate(502.498049, 110.984614)"><g><path d="M 23.421875 -15.203125 L 29.65625 -15.203125 L 29.65625 -3.25 C 28.050781 -2.039062 26.195312 -1.113281 24.09375 -0.46875 C 21.988281 0.175781 19.867188 0.5 17.734375 0.5 C 14.671875 0.5 11.914062 -0.148438 9.46875 -1.453125 C 7.03125 -2.753906 5.113281 -4.5625 3.71875 -6.875 C 2.332031 -9.195312 1.640625 -11.820312 1.640625 -14.75 C 1.640625 -17.664062 2.332031 -20.28125 3.71875 -22.59375 C 5.113281 -24.914062 7.046875 -26.726562 9.515625 -28.03125 C 11.992188 -29.34375 14.773438 -30 17.859375 -30 C 20.441406 -30 22.785156 -29.5625 24.890625 -28.6875 C 27.003906 -27.8125 28.773438 -26.546875 30.203125 -24.890625 L 25.828125 -20.859375 C 23.710938 -23.078125 21.171875 -24.1875 18.203125 -24.1875 C 16.316406 -24.1875 14.644531 -23.789062 13.1875 -23 C 11.726562 -22.21875 10.585938 -21.109375 9.765625 -19.671875 C 8.953125 -18.242188 8.546875 -16.601562 8.546875 -14.75 C 8.546875 -12.914062 8.953125 -11.28125 9.765625 -9.84375 C 10.585938 -8.414062 11.71875 -7.300781 13.15625 -6.5 C 14.601562 -5.707031 16.253906 -5.3125 18.109375 -5.3125 C 20.078125 -5.3125 21.847656 -5.734375 23.421875 -6.578125 Z M 23.421875 -15.203125 "/></g></g></g><g fill="#365b6d" fill-opacity="1"><g transform="translate(311.734519, 146.541684)"><g><path d="M 6.203125 -12.28125 L 1.359375 -12.28125 L 1.953125 -15.140625 L 15.140625 -15.140625 L 14.546875 -12.28125 L 9.734375 -12.28125 L 7.265625 0 L 3.765625 0 Z M 6.203125 -12.28125 "/></g></g></g><g fill="#365b6d" fill-opacity="1"><g transform="translate(327.259038, 146.541684)"><g><path d="M 15.75 -10.4375 C 15.75 -9.03125 15.363281 -7.820312 14.59375 -6.8125 C 13.832031 -5.800781 12.773438 -5.085938 11.421875 -4.671875 L 14.0625 0 L 10.359375 0 L 7.984375 -4.234375 L 5 -4.234375 L 4.15625 0 L 0.625 0 L 3.65625 -15.140625 L 9.8125 -15.140625 C 11.6875 -15.140625 13.144531 -14.726562 14.1875 -13.90625 C 15.226562 -13.082031 15.75 -11.925781 15.75 -10.4375 Z M 8.515625 -7.03125 C 9.679688 -7.03125 10.585938 -7.296875 11.234375 -7.828125 C 11.878906 -8.359375 12.203125 -9.125 12.203125 -10.125 C 12.203125 -10.84375 11.953125 -11.378906 11.453125 -11.734375 C 10.960938 -12.097656 10.265625 -12.28125 9.359375 -12.28125 L 6.59375 -12.28125 L 5.53125 -7.03125 Z M 8.515625 -7.03125 "/></g></g></g><g fill="#365b6d" fill-opacity="1"><g transform="translate(345.31304, 146.541684)"><g><path d="M 11.390625 -3.25 L 4.34375 -3.25 L 2.375 0 L -1.359375 0 L 8.4375 -15.140625 L 11.890625 -15.140625 L 15.609375 0 L 12.109375 0 Z M 10.8125 -5.90625 L 9.53125 -11.75 L 5.96875 -5.90625 Z M 10.8125 -5.90625 "/></g></g></g><g fill="#365b6d" fill-opacity="1"><g transform="translate(364.03725, 146.541684)"><g><path d="M 3.65625 -15.140625 L 9.984375 -15.140625 C 11.523438 -15.140625 12.851562 -14.882812 13.96875 -14.375 C 15.09375 -13.863281 15.953125 -13.128906 16.546875 -12.171875 C 17.148438 -11.222656 17.453125 -10.109375 17.453125 -8.828125 C 17.453125 -7.066406 17.054688 -5.519531 16.265625 -4.1875 C 15.472656 -2.851562 14.363281 -1.820312 12.9375 -1.09375 C 11.519531 -0.363281 9.878906 0 8.015625 0 L 0.625 0 Z M 8.125 -2.875 C 9.3125 -2.875 10.335938 -3.125 11.203125 -3.625 C 12.078125 -4.125 12.742188 -4.804688 13.203125 -5.671875 C 13.671875 -6.546875 13.90625 -7.53125 13.90625 -8.625 C 13.90625 -9.769531 13.535156 -10.660156 12.796875 -11.296875 C 12.066406 -11.941406 11 -12.265625 9.59375 -12.265625 L 6.59375 -12.265625 L 4.71875 -2.875 Z M 8.125 -2.875 "/></g></g></g><g fill="#365b6d" fill-opacity="1"><g transform="translate(384.058634, 146.541684)"><g><path d="M 6.578125 -12.328125 L 5.921875 -9.046875 L 12.953125 -9.046875 L 12.40625 -6.3125 L 5.359375 -6.3125 L 4.671875 -2.8125 L 12.9375 -2.8125 L 12.34375 0 L 0.625 0 L 3.65625 -15.140625 L 15.09375 -15.140625 L 14.515625 -12.328125 Z M 6.578125 -12.328125 "/></g></g></g><path stroke-linecap="butt" transform="matrix(2.252906, 0.000000000000000588, -0.000000000000000587, 2.25, 222.808569, 140.634857)" fill="none" stroke-linejoin="miter" d="M 0.0000111475 0.0008276 L 36.291673 0.0008276 " stroke="#000000" stroke-width="1" stroke-opacity="1" stroke-miterlimit="4"/></svg>