<svg xmlns="http://www.w3.org/2000/svg" xmlns:xlink="http://www.w3.org/1999/xlink" width="240" zoomAndPan="magnify" viewBox="0 0 180 60" height="80" preserveAspectRatio="xMidYMid meet" version="1.0"><defs><clipPath id="6dfecf65f7"><path d="M 14.078125 7.101562 L 56.203125 7.101562 L 56.203125 49.226562 L 14.078125 49.226562 Z M 14.078125 7.101562 " clip-rule="nonzero"/></clipPath></defs><g clip-path="url(#6dfecf65f7)"><path fill="#000000" d="M 53.953125 15.507812 L 56.203125 7.101562 L 47.796875 9.351562 L 49.6875 11.246094 L 18.890625 42.039062 C 18.890625 42.039062 19.082031 42.265625 20.054688 43.253906 C 21.027344 44.242188 21.269531 44.417969 21.269531 44.417969 L 52.0625 13.617188 Z M 32.402344 22.105469 L 34.292969 23.996094 L 36.546875 15.589844 L 28.140625 17.839844 L 30.027344 19.730469 L 17.734375 32.027344 C 17.585938 31.242188 17.492188 30.453125 17.457031 29.652344 C 17.421875 28.855469 17.445312 28.058594 17.523438 27.265625 C 17.601562 26.46875 17.730469 25.683594 17.917969 24.910156 C 18.109375 24.132812 18.347656 23.371094 18.644531 22.632812 C 18.9375 21.890625 19.285156 21.171875 19.679688 20.476562 C 20.078125 19.785156 20.519531 19.125 21.011719 18.492188 C 21.5 17.863281 22.03125 17.269531 22.601562 16.710938 C 23.179688 16.15625 23.789062 15.644531 24.433594 15.175781 C 25.078125 14.707031 25.753906 14.285156 26.460938 13.910156 C 27.164062 13.535156 27.894531 13.210938 28.644531 12.941406 C 29.394531 12.667969 30.160156 12.449219 30.941406 12.289062 C 31.722656 12.125 32.515625 12.015625 33.308594 11.964844 C 34.109375 11.914062 34.902344 11.917969 35.699219 11.976562 C 36.496094 12.039062 37.285156 12.152344 38.0625 12.324219 C 38.84375 12.496094 39.609375 12.722656 40.355469 13 C 41.105469 13.28125 41.828125 13.609375 42.53125 13.992188 L 44.988281 11.535156 C 44.519531 11.25 44.039062 10.984375 43.546875 10.738281 C 43.054688 10.492188 42.554688 10.265625 42.046875 10.058594 C 41.539062 9.851562 41.019531 9.667969 40.5 9.503906 C 39.972656 9.339844 39.445312 9.195312 38.910156 9.074219 C 38.371094 8.957031 37.832031 8.855469 37.289062 8.777344 C 36.742188 8.699219 36.199219 8.644531 35.652344 8.609375 C 35.101562 8.578125 34.554688 8.570312 34.003906 8.578125 C 33.453125 8.589844 32.90625 8.625 32.363281 8.679688 C 31.816406 8.734375 31.273438 8.8125 30.730469 8.914062 C 30.191406 9.011719 29.65625 9.132812 29.125 9.273438 C 28.597656 9.417969 28.070312 9.582031 27.554688 9.769531 C 27.039062 9.953125 26.527344 10.160156 26.027344 10.386719 C 25.527344 10.613281 25.039062 10.859375 24.558594 11.125 C 24.078125 11.390625 23.609375 11.675781 23.152344 11.980469 C 22.695312 12.285156 22.25 12.605469 21.820312 12.949219 C 21.386719 13.289062 20.972656 13.644531 20.570312 14.019531 C 20.167969 14.390625 19.78125 14.78125 19.410156 15.1875 C 19.039062 15.59375 18.6875 16.011719 18.347656 16.445312 C 18.011719 16.878906 17.691406 17.328125 17.394531 17.789062 C 17.09375 18.246094 16.8125 18.71875 16.550781 19.199219 C 16.289062 19.683594 16.042969 20.175781 15.824219 20.675781 C 15.597656 21.179688 15.398438 21.691406 15.214844 22.207031 C 15.035156 22.726562 14.875 23.253906 14.738281 23.785156 C 14.597656 24.316406 14.480469 24.851562 14.386719 25.390625 C 14.292969 25.933594 14.21875 26.476562 14.167969 27.023438 C 14.117188 27.570312 14.085938 28.117188 14.082031 28.667969 C 14.074219 29.21875 14.089844 29.765625 14.125 30.3125 C 14.164062 30.859375 14.226562 31.40625 14.308594 31.949219 C 14.390625 32.492188 14.492188 33.03125 14.617188 33.566406 C 14.742188 34.101562 14.890625 34.628906 15.058594 35.152344 C 15.226562 35.675781 15.417969 36.191406 15.628906 36.695312 C 15.835938 37.203125 16.066406 37.703125 16.316406 38.191406 Z M 49.3125 20.785156 C 52.8125 27.21875 51.84375 35.460938 46.40625 40.902344 C 45.921875 41.386719 45.40625 41.839844 44.867188 42.265625 C 44.324219 42.6875 43.757812 43.078125 43.171875 43.433594 C 42.582031 43.785156 41.972656 44.101562 41.347656 44.382812 C 40.722656 44.664062 40.078125 44.90625 39.421875 45.109375 C 38.765625 45.3125 38.097656 45.476562 37.421875 45.597656 C 36.746094 45.71875 36.066406 45.796875 35.378906 45.835938 C 34.691406 45.878906 34.007812 45.875 33.324219 45.832031 C 32.636719 45.789062 31.957031 45.703125 31.28125 45.574219 L 35.722656 41.132812 L 37.613281 43.023438 L 39.867188 34.613281 L 31.457031 36.867188 L 33.347656 38.757812 L 27.640625 44.464844 L 25.117188 46.992188 C 25.605469 47.242188 26.101562 47.46875 26.609375 47.679688 C 27.117188 47.890625 27.632812 48.082031 28.15625 48.25 C 28.679688 48.417969 29.207031 48.566406 29.742188 48.691406 C 30.277344 48.816406 30.816406 48.917969 31.359375 49.003906 C 31.902344 49.085938 32.445312 49.144531 32.996094 49.179688 C 33.542969 49.21875 34.089844 49.234375 34.640625 49.226562 C 35.191406 49.222656 35.738281 49.191406 36.285156 49.140625 C 36.832031 49.089844 37.375 49.015625 37.914062 48.921875 C 38.457031 48.828125 38.992188 48.710938 39.527344 48.570312 C 40.054688 48.433594 40.582031 48.273438 41.101562 48.089844 C 41.617188 47.910156 42.128906 47.710938 42.628906 47.488281 C 43.132812 47.265625 43.625 47.023438 44.105469 46.761719 C 44.589844 46.496094 45.0625 46.21875 45.519531 45.914062 C 45.980469 45.613281 46.425781 45.296875 46.859375 44.960938 C 47.296875 44.625 47.714844 44.269531 48.121094 43.898438 C 48.523438 43.527344 48.914062 43.140625 49.289062 42.738281 C 49.664062 42.339844 50.019531 41.921875 50.359375 41.492188 C 50.699219 41.058594 51.023438 40.613281 51.328125 40.15625 C 51.632812 39.699219 51.917969 39.230469 52.183594 38.75 C 52.449219 38.269531 52.695312 37.78125 52.921875 37.277344 C 53.148438 36.777344 53.355469 36.269531 53.539062 35.753906 C 53.726562 35.238281 53.890625 34.714844 54.03125 34.183594 C 54.175781 33.652344 54.296875 33.117188 54.398438 32.578125 C 54.496094 32.039062 54.574219 31.496094 54.628906 30.949219 C 54.683594 30.402344 54.71875 29.855469 54.730469 29.304688 C 54.742188 28.753906 54.730469 28.207031 54.695312 27.660156 C 54.664062 27.109375 54.605469 26.566406 54.53125 26.019531 C 54.453125 25.476562 54.355469 24.9375 54.230469 24.402344 C 54.109375 23.867188 53.96875 23.335938 53.804688 22.8125 C 53.640625 22.289062 53.457031 21.773438 53.25 21.261719 C 53.042969 20.753906 52.816406 20.253906 52.570312 19.761719 C 52.324219 19.269531 52.058594 18.792969 51.773438 18.324219 Z M 49.3125 20.785156 " fill-opacity="1" fill-rule="nonzero"/></g><path fill="#000000" d="M 70.191406 21.804688 L 64.539062 21.804688 L 64.539062 25.613281 L 69.433594 25.613281 L 69.433594 27.679688 L 64.539062 27.679688 L 64.539062 31.496094 L 70.191406 31.496094 L 70.191406 33.539062 L 62.285156 33.539062 L 62.285156 19.757812 L 70.191406 19.757812 Z M 70.191406 21.804688 " fill-opacity="1" fill-rule="nonzero"/><path fill="#000000" d="M 81.890625 19.757812 L 84.394531 19.757812 L 79.40625 33.539062 L 76.90625 33.539062 L 71.914062 19.757812 L 74.421875 19.757812 L 78.171875 30.691406 Z M 81.890625 19.757812 " fill-opacity="1" fill-rule="nonzero"/><path fill="#000000" d="M 94.484375 21.804688 L 88.832031 21.804688 L 88.832031 25.613281 L 93.722656 25.613281 L 93.722656 27.679688 L 88.832031 27.679688 L 88.832031 31.496094 L 94.484375 31.496094 L 94.484375 33.539062 L 86.578125 33.539062 L 86.578125 19.757812 L 94.484375 19.757812 Z M 94.484375 21.804688 " fill-opacity="1" fill-rule="nonzero"/><path fill="#000000" d="M 101.726562 33.726562 C 100.617188 33.726562 99.632812 33.449219 98.765625 32.902344 C 97.902344 32.347656 97.273438 31.640625 96.875 30.78125 L 98.800781 29.613281 C 99.050781 30.195312 99.425781 30.664062 99.933594 31.027344 C 100.4375 31.382812 101.042969 31.5625 101.746094 31.5625 C 102.386719 31.5625 102.917969 31.40625 103.339844 31.09375 C 103.757812 30.78125 103.972656 30.339844 103.972656 29.769531 C 103.972656 29.285156 103.816406 28.890625 103.503906 28.59375 C 103.191406 28.292969 102.78125 28.039062 102.28125 27.835938 C 101.785156 27.628906 101.265625 27.417969 100.714844 27.210938 C 100.164062 27.003906 99.636719 26.75 99.136719 26.453125 C 98.640625 26.15625 98.234375 25.765625 97.917969 25.285156 C 97.605469 24.800781 97.449219 24.175781 97.449219 23.410156 C 97.449219 22.582031 97.636719 21.882812 98.019531 21.304688 C 98.40625 20.730469 98.914062 20.300781 99.539062 20.011719 C 100.167969 19.71875 100.839844 19.574219 101.5625 19.574219 C 102.375 19.574219 103.125 19.746094 103.824219 20.09375 C 104.519531 20.433594 105.082031 20.875 105.511719 21.410156 L 103.925781 22.859375 C 103.300781 22.0625 102.511719 21.664062 101.5625 21.664062 C 101.054688 21.664062 100.617188 21.792969 100.253906 22.058594 C 99.882812 22.316406 99.703125 22.710938 99.703125 23.246094 C 99.703125 23.722656 99.859375 24.101562 100.171875 24.382812 C 100.488281 24.667969 100.894531 24.910156 101.390625 25.113281 C 101.886719 25.3125 102.410156 25.519531 102.960938 25.730469 C 103.515625 25.945312 104.039062 26.210938 104.535156 26.535156 C 105.03125 26.859375 105.4375 27.277344 105.75 27.792969 C 106.066406 28.300781 106.226562 28.960938 106.226562 29.769531 C 106.226562 30.597656 106.019531 31.308594 105.613281 31.898438 C 105.207031 32.488281 104.664062 32.941406 103.980469 33.257812 C 103.296875 33.570312 102.546875 33.726562 101.726562 33.726562 Z M 101.726562 33.726562 " fill-opacity="1" fill-rule="nonzero"/><path fill="#000000" d="M 117.09375 19.757812 L 117.09375 21.847656 L 113.445312 21.847656 L 113.445312 33.539062 L 111.210938 33.539062 L 111.210938 21.847656 L 107.5625 21.847656 L 107.5625 19.757812 Z M 117.09375 19.757812 " fill-opacity="1" fill-rule="nonzero"/><path fill="#000000" d="M 119.488281 19.757812 L 121.742188 19.757812 L 121.742188 33.539062 L 119.488281 33.539062 Z M 119.488281 19.757812 " fill-opacity="1" fill-rule="nonzero"/><path fill="#000000" d="M 133.601562 21.804688 L 127.949219 21.804688 L 127.949219 25.613281 L 132.839844 25.613281 L 132.839844 27.679688 L 127.949219 27.679688 L 127.949219 33.539062 L 125.695312 33.539062 L 125.695312 19.757812 L 133.601562 19.757812 Z M 133.601562 21.804688 " fill-opacity="1" fill-rule="nonzero"/><path fill="#000000" d="M 146.351562 19.757812 L 141.554688 27.015625 L 141.554688 33.539062 L 139.300781 33.539062 L 139.300781 27.0625 L 134.472656 19.757812 L 137.121094 19.757812 L 140.421875 24.949219 L 143.753906 19.757812 Z M 146.351562 19.757812 " fill-opacity="1" fill-rule="nonzero"/><path fill="#000000" d="M 68.511719 40.816406 L 68.980469 40.816406 L 68.980469 44.882812 L 68.511719 44.882812 Z M 68.511719 40.816406 " fill-opacity="1" fill-rule="nonzero"/><path fill="#000000" d="M 73.019531 40.816406 L 73.464844 40.816406 L 73.464844 44.882812 L 73.101562 44.882812 L 70.648438 41.609375 L 70.648438 44.882812 L 70.207031 44.882812 L 70.207031 40.816406 L 70.566406 40.816406 L 73.019531 44.085938 Z M 73.019531 40.816406 " fill-opacity="1" fill-rule="nonzero"/><path fill="#000000" d="M 77.675781 40.816406 L 78.167969 40.816406 L 76.386719 44.882812 L 75.972656 44.882812 L 74.203125 40.816406 L 74.691406 40.816406 L 76.1875 44.289062 Z M 77.675781 40.816406 " fill-opacity="1" fill-rule="nonzero"/><path fill="#000000" d="M 78.898438 44.882812 L 78.898438 40.816406 L 81.460938 40.816406 L 81.460938 41.203125 L 79.359375 41.203125 L 79.359375 42.621094 L 81.351562 42.621094 L 81.351562 43.015625 L 79.359375 43.015625 L 79.359375 44.496094 L 81.460938 44.496094 L 81.460938 44.882812 Z M 78.898438 44.882812 " fill-opacity="1" fill-rule="nonzero"/><path fill="#000000" d="M 83.765625 44.929688 C 83.128906 44.929688 82.625 44.757812 82.246094 44.414062 L 82.425781 44.058594 C 82.625 44.226562 82.828125 44.347656 83.035156 44.421875 C 83.25 44.492188 83.492188 44.527344 83.773438 44.527344 C 84.101562 44.527344 84.347656 44.464844 84.523438 44.339844 C 84.703125 44.210938 84.792969 44.03125 84.792969 43.796875 C 84.792969 43.660156 84.75 43.546875 84.664062 43.460938 C 84.578125 43.378906 84.46875 43.3125 84.332031 43.261719 C 84.191406 43.214844 84.003906 43.160156 83.773438 43.105469 C 83.460938 43.035156 83.203125 42.960938 83 42.882812 C 82.800781 42.804688 82.636719 42.6875 82.507812 42.539062 C 82.382812 42.386719 82.320312 42.1875 82.320312 41.945312 C 82.320312 41.714844 82.382812 41.511719 82.5 41.335938 C 82.625 41.15625 82.796875 41.019531 83.019531 40.917969 C 83.246094 40.820312 83.503906 40.769531 83.800781 40.769531 C 84.085938 40.769531 84.347656 40.816406 84.589844 40.902344 C 84.832031 40.988281 85.039062 41.117188 85.207031 41.285156 L 85.023438 41.648438 C 84.832031 41.484375 84.640625 41.363281 84.441406 41.289062 C 84.25 41.210938 84.035156 41.171875 83.800781 41.171875 C 83.484375 41.171875 83.238281 41.238281 83.058594 41.371094 C 82.878906 41.507812 82.789062 41.691406 82.789062 41.929688 C 82.789062 42.136719 82.867188 42.289062 83.019531 42.390625 C 83.179688 42.496094 83.417969 42.585938 83.742188 42.660156 C 84.09375 42.746094 84.371094 42.824219 84.566406 42.898438 C 84.765625 42.96875 84.933594 43.074219 85.066406 43.21875 C 85.199219 43.355469 85.265625 43.542969 85.265625 43.78125 C 85.265625 44.011719 85.203125 44.210938 85.082031 44.386719 C 84.960938 44.558594 84.789062 44.695312 84.5625 44.785156 C 84.335938 44.882812 84.070312 44.929688 83.765625 44.929688 Z M 83.765625 44.929688 " fill-opacity="1" fill-rule="nonzero"/><path fill="#000000" d="M 87.242188 44.882812 L 87.242188 41.214844 L 85.820312 41.214844 L 85.820312 40.816406 L 89.128906 40.816406 L 89.128906 41.214844 L 87.710938 41.214844 L 87.710938 44.882812 Z M 87.242188 44.882812 " fill-opacity="1" fill-rule="nonzero"/><path fill="#000000" d="M 89.785156 44.296875 L 90.375 44.296875 L 90.375 44.882812 L 89.785156 44.882812 Z M 89.785156 44.296875 " fill-opacity="1" fill-rule="nonzero"/><path fill="#000000" d="M 96.394531 42.761719 L 96.394531 44.652344 C 96.234375 44.734375 96.027344 44.800781 95.761719 44.851562 C 95.503906 44.902344 95.246094 44.929688 94.984375 44.929688 C 94.574219 44.929688 94.226562 44.847656 93.933594 44.683594 C 93.640625 44.515625 93.417969 44.273438 93.265625 43.960938 C 93.109375 43.648438 93.035156 43.277344 93.035156 42.84375 C 93.035156 42.414062 93.109375 42.046875 93.265625 41.738281 C 93.417969 41.425781 93.636719 41.1875 93.925781 41.023438 C 94.210938 40.855469 94.554688 40.769531 94.945312 40.769531 C 95.226562 40.769531 95.488281 40.816406 95.726562 40.902344 C 95.964844 40.988281 96.167969 41.117188 96.34375 41.285156 L 96.15625 41.648438 C 95.964844 41.480469 95.773438 41.359375 95.585938 41.285156 C 95.394531 41.210938 95.183594 41.171875 94.945312 41.171875 C 94.484375 41.171875 94.128906 41.316406 93.882812 41.601562 C 93.636719 41.890625 93.515625 42.304688 93.515625 42.84375 C 93.515625 43.394531 93.640625 43.816406 93.890625 44.101562 C 94.140625 44.390625 94.507812 44.535156 94.988281 44.535156 C 95.328125 44.535156 95.652344 44.480469 95.964844 44.378906 L 95.964844 43.136719 L 94.953125 43.136719 L 94.953125 42.761719 Z M 96.394531 42.761719 " fill-opacity="1" fill-rule="nonzero"/><path fill="#000000" d="M 100.773438 44.882812 L 100.273438 44.882812 L 99.765625 43.53125 C 99.707031 43.363281 99.621094 43.25 99.515625 43.195312 C 99.40625 43.136719 99.25 43.105469 99.054688 43.105469 L 98.042969 43.105469 L 98.042969 44.882812 L 97.582031 44.882812 L 97.582031 40.816406 L 99.195312 40.816406 C 99.628906 40.816406 99.964844 40.914062 100.199219 41.113281 C 100.4375 41.304688 100.554688 41.585938 100.554688 41.945312 C 100.554688 42.214844 100.484375 42.441406 100.347656 42.621094 C 100.207031 42.800781 100.007812 42.925781 99.746094 43 C 99.859375 43.023438 99.957031 43.074219 100.042969 43.15625 C 100.125 43.238281 100.199219 43.355469 100.257812 43.507812 Z M 99.15625 42.71875 C 99.78125 42.71875 100.09375 42.464844 100.09375 41.953125 C 100.09375 41.699219 100.015625 41.511719 99.863281 41.386719 C 99.710938 41.265625 99.472656 41.203125 99.15625 41.203125 L 98.042969 41.203125 L 98.042969 42.71875 Z M 99.15625 42.71875 " fill-opacity="1" fill-rule="nonzero"/><path fill="#000000" d="M 103.457031 44.929688 C 103.082031 44.929688 102.753906 44.847656 102.476562 44.683594 C 102.195312 44.515625 101.984375 44.273438 101.835938 43.960938 C 101.6875 43.644531 101.613281 43.273438 101.613281 42.851562 C 101.613281 42.425781 101.6875 42.058594 101.835938 41.746094 C 101.984375 41.433594 102.195312 41.191406 102.476562 41.023438 C 102.753906 40.855469 103.082031 40.769531 103.457031 40.769531 C 103.839844 40.769531 104.167969 40.855469 104.445312 41.023438 C 104.722656 41.191406 104.9375 41.433594 105.085938 41.746094 C 105.234375 42.058594 105.308594 42.425781 105.308594 42.84375 C 105.308594 43.273438 105.234375 43.640625 105.085938 43.953125 C 104.9375 44.265625 104.722656 44.507812 104.441406 44.675781 C 104.160156 44.84375 103.832031 44.929688 103.457031 44.929688 Z M 103.457031 44.527344 C 103.890625 44.527344 104.222656 44.382812 104.460938 44.085938 C 104.703125 43.796875 104.828125 43.378906 104.828125 42.84375 C 104.828125 42.308594 104.707031 41.898438 104.46875 41.609375 C 104.230469 41.320312 103.894531 41.171875 103.457031 41.171875 C 103.027344 41.171875 102.6875 41.320312 102.445312 41.609375 C 102.207031 41.898438 102.089844 42.308594 102.089844 42.84375 C 102.089844 43.378906 102.207031 43.796875 102.445312 44.085938 C 102.6875 44.382812 103.027344 44.527344 103.457031 44.527344 Z M 103.457031 44.527344 " fill-opacity="1" fill-rule="nonzero"/><path fill="#000000" d="M 111.585938 40.816406 L 112.046875 40.816406 L 110.625 44.882812 L 110.226562 44.882812 L 109.066406 41.550781 L 107.898438 44.882812 L 107.503906 44.882812 L 106.074219 40.816406 L 106.558594 40.816406 L 107.710938 44.214844 L 108.894531 40.816406 L 109.25 40.824219 L 110.417969 44.230469 Z M 111.585938 40.816406 " fill-opacity="1" fill-rule="nonzero"/><path fill="#000000" d="M 112.828125 44.296875 L 113.414062 44.296875 L 113.414062 44.882812 L 112.828125 44.882812 Z M 112.828125 44.296875 " fill-opacity="1" fill-rule="nonzero"/><path fill="#000000" d="M 119.414062 44.882812 L 118.917969 44.882812 L 118.410156 43.53125 C 118.351562 43.363281 118.265625 43.25 118.160156 43.195312 C 118.050781 43.136719 117.894531 43.105469 117.699219 43.105469 L 116.6875 43.105469 L 116.6875 44.882812 L 116.226562 44.882812 L 116.226562 40.816406 L 117.839844 40.816406 C 118.273438 40.816406 118.609375 40.914062 118.84375 41.113281 C 119.082031 41.304688 119.199219 41.585938 119.199219 41.945312 C 119.199219 42.214844 119.128906 42.441406 118.992188 42.621094 C 118.851562 42.800781 118.652344 42.925781 118.390625 43 C 118.503906 43.023438 118.601562 43.074219 118.6875 43.15625 C 118.769531 43.238281 118.84375 43.355469 118.902344 43.507812 Z M 117.800781 42.71875 C 118.425781 42.71875 118.738281 42.464844 118.738281 41.953125 C 118.738281 41.699219 118.660156 41.511719 118.507812 41.386719 C 118.355469 41.265625 118.117188 41.203125 117.800781 41.203125 L 116.6875 41.203125 L 116.6875 42.71875 Z M 117.800781 42.71875 " fill-opacity="1" fill-rule="nonzero"/><path fill="#000000" d="M 120.40625 44.882812 L 120.40625 40.816406 L 122.972656 40.816406 L 122.972656 41.203125 L 120.867188 41.203125 L 120.867188 42.621094 L 122.859375 42.621094 L 122.859375 43.015625 L 120.867188 43.015625 L 120.867188 44.496094 L 122.972656 44.496094 L 122.972656 44.882812 Z M 120.40625 44.882812 " fill-opacity="1" fill-rule="nonzero"/><path fill="#000000" d="M 123.988281 40.816406 L 125.609375 40.816406 C 126.027344 40.816406 126.347656 40.917969 126.582031 41.121094 C 126.820312 41.324219 126.941406 41.601562 126.941406 41.953125 C 126.941406 42.304688 126.820312 42.585938 126.582031 42.792969 C 126.34375 42.996094 126.019531 43.097656 125.609375 43.097656 L 124.457031 43.097656 L 124.457031 44.882812 L 123.988281 44.882812 Z M 125.5625 42.703125 C 125.867188 42.703125 126.09375 42.640625 126.242188 42.511719 C 126.394531 42.382812 126.472656 42.195312 126.472656 41.953125 C 126.472656 41.710938 126.394531 41.523438 126.242188 41.394531 C 126.09375 41.265625 125.867188 41.203125 125.5625 41.203125 L 124.457031 41.203125 L 124.457031 42.703125 Z M 125.5625 42.703125 " fill-opacity="1" fill-rule="nonzero"/><path fill="#000000" d="M 127.929688 44.882812 L 127.929688 40.816406 L 130.496094 40.816406 L 130.496094 41.203125 L 128.390625 41.203125 L 128.390625 42.621094 L 130.382812 42.621094 L 130.382812 43.015625 L 128.390625 43.015625 L 128.390625 44.496094 L 130.496094 44.496094 L 130.496094 44.882812 Z M 127.929688 44.882812 " fill-opacity="1" fill-rule="nonzero"/><path fill="#000000" d="M 134.613281 44.882812 L 134.164062 43.835938 L 132.046875 43.835938 L 131.59375 44.882812 L 131.109375 44.882812 L 132.894531 40.816406 L 133.308594 40.816406 L 135.09375 44.882812 Z M 132.210938 43.449219 L 134 43.449219 L 133.109375 41.359375 Z M 132.210938 43.449219 " fill-opacity="1" fill-rule="nonzero"/><path fill="#000000" d="M 136.90625 44.882812 L 136.90625 41.214844 L 135.488281 41.214844 L 135.488281 40.816406 L 138.796875 40.816406 L 138.796875 41.214844 L 137.375 41.214844 L 137.375 44.882812 Z M 136.90625 44.882812 " fill-opacity="1" fill-rule="nonzero"/></svg>